<?xml version="1.0" encoding="UTF-8" standalone="no"?>
<!DOCTYPE svg PUBLIC "-//W3C//DTD SVG 1.1//EN" "http://www.w3.org/Graphics/SVG/1.1/DTD/svg11.dtd">
<svg width="100%" height="100%" viewBox="0 0 400 400" version="1.1" xmlns="http://www.w3.org/2000/svg" xmlns:xlink="http://www.w3.org/1999/xlink" xml:space="preserve" xmlns:serif="http://www.serif.com/" style="fill-rule:evenodd;clip-rule:evenodd;stroke-linecap:round;stroke-linejoin:round;stroke-miterlimit:1.5;">
    <g transform="matrix(8.49693e-16,13.99,-1.52119,8.65875e-17,843.002,-2059.98)">
        <rect x="148.305" y="298.547" width="24.697" height="208.475" style="stroke:black;stroke-width:0.1px;"/>
    </g>
    <g transform="matrix(38.2091,0,0,38.3782,-12325,-8095.02)">
        <g transform="matrix(12,0,0,12,322.639,220.823)">
            <path d="M0.038,-0L0.239,-0L0.239,-0.029L0.202,-0.029C0.154,-0.029 0.152,-0.038 0.152,-0.082L0.152,-0.57L0.154,-0.57L0.379,-0.026L0.397,-0.026L0.619,-0.57L0.621,-0.57L0.621,-0.085C0.621,-0.039 0.616,-0.029 0.543,-0.029L0.543,-0L0.787,-0L0.787,-0.029C0.719,-0.029 0.711,-0.038 0.711,-0.085L0.711,-0.574C0.711,-0.623 0.718,-0.63 0.787,-0.631L0.787,-0.66L0.619,-0.66L0.417,-0.169L0.416,-0.169L0.214,-0.66L0.038,-0.66L0.038,-0.631C0.107,-0.63 0.114,-0.623 0.114,-0.574L0.114,-0.082C0.114,-0.042 0.109,-0.029 0.067,-0.029L0.038,-0.029L0.038,-0Z" style="fill:white;fill-rule:nonzero;"/>
        </g>
    </g>
    <g transform="matrix(38.2091,0,0,38.3782,-12334.8,-8087.26)">
        <g transform="matrix(12,0,0,12,322.639,220.823)">
            <path d="M0.038,-0L0.239,-0L0.239,-0.029L0.202,-0.029C0.154,-0.029 0.152,-0.038 0.152,-0.082L0.152,-0.57L0.154,-0.57L0.379,-0.026L0.397,-0.026L0.619,-0.57L0.621,-0.57L0.621,-0.085C0.621,-0.039 0.616,-0.029 0.543,-0.029L0.543,-0L0.787,-0L0.787,-0.029C0.719,-0.029 0.711,-0.038 0.711,-0.085L0.711,-0.574C0.711,-0.623 0.718,-0.63 0.787,-0.631L0.787,-0.66L0.619,-0.66L0.417,-0.169L0.416,-0.169L0.214,-0.66L0.038,-0.66L0.038,-0.631C0.107,-0.63 0.114,-0.623 0.114,-0.574L0.114,-0.082C0.114,-0.042 0.109,-0.029 0.067,-0.029L0.038,-0.029L0.038,-0Z" style="fill-rule:nonzero;"/>
        </g>
    </g>
</svg>
